<svg width="506" height="120" viewBox="0 0 506 120" fill="none" xmlns="http://www.w3.org/2000/svg">
<g clip-path="url(#clip0_7_7)">
<path d="M1.10464e-05 27.6619C1.2374e-05 19.889 8.28328 15.0878 14.7942 19.087L39.3566 34.174C45.2411 37.7884 48.8417 44.2986 48.8417 51.3238V68.6762C48.8417 75.7015 45.2411 82.2116 39.3566 85.8261L14.7941 100.913C8.28325 104.912 -1.32752e-06 100.111 0 92.3381L1.10464e-05 27.6619Z" fill="#FA776C"/>
<path d="M101.449 2.20685e-06C106.622 3.33234e-06 109.259 6.36198 105.663 10.1701L92.6978 23.9004C89.0168 27.7987 83.9475 30 78.6513 30H54.2531C50.7121 30 47.2378 29.0148 44.2015 27.1498L18.1446 11.1449C13.0474 8.01405 15.2157 -1.65519e-05 21.1601 -1.52588e-05L101.449 2.20685e-06Z" fill="#624CF5"/>
<path d="M101.449 120C106.622 120 109.259 113.638 105.663 109.83L92.6978 96.0995C89.0168 92.2013 83.9475 90 78.6513 90H54.2531C50.7121 90 47.2378 90.9851 44.2015 92.8501L18.1446 108.855C13.0474 111.986 15.2157 120 21.1601 120H101.449Z" fill="#624CF5"/>
<path d="M84.0077 60C84.0077 51.7157 77.4476 45 69.3552 45C61.2628 45 54.7027 51.7157 54.7027 60C54.7027 68.2843 61.2628 75 69.3552 75C77.4476 75 84.0077 68.2843 84.0077 60Z" fill="#FA776C"/>
<path d="M139.049 57.896H156.329V61.976H139.049V57.896ZM139.481 72.824H159.065V77H134.681V43.4H158.393V47.576H139.481V72.824ZM176.065 77L161.281 43.4H166.465L180.049 74.408H177.073L190.753 43.4H195.553L180.817 77H176.065ZM204.206 57.896H221.486V61.976H204.206V57.896ZM204.638 72.824H224.222V77H199.838V43.4H223.55V47.576H204.638V72.824ZM231.994 77V43.4H235.93L258.154 71H256.09V43.4H260.89V77H256.954L234.73 49.4H236.794V77H231.994ZM277.619 77V47.576H266.099V43.4H293.891V47.576H282.371V77H277.619ZM296.143 77V73.736L318.751 45.704L319.279 47.576H296.479V43.4H323.599V46.664L301.087 74.696L300.511 72.824H324.223V77H296.143ZM354.762 43.4H359.562V77H354.762V43.4ZM335.466 77H330.666V43.4H335.466V77ZM355.194 62.024H334.986V57.848H355.194V62.024ZM383.539 77.384C379.123 77.384 375.651 76.12 373.123 73.592C370.595 71.064 369.331 67.368 369.331 62.504V43.4H374.131V62.312C374.131 66.056 374.947 68.792 376.579 70.52C378.243 72.248 380.579 73.112 383.587 73.112C386.627 73.112 388.963 72.248 390.595 70.52C392.259 68.792 393.091 66.056 393.091 62.312V43.4H397.747V62.504C397.747 67.368 396.483 71.064 393.955 73.592C391.459 76.12 387.987 77.384 383.539 77.384ZM407.588 77V43.4H422.66C426.532 43.4 429.508 44.184 431.588 45.752C433.668 47.288 434.708 49.4 434.708 52.088C434.708 53.912 434.292 55.448 433.46 56.696C432.66 57.944 431.572 58.904 430.196 59.576C428.82 60.248 427.332 60.584 425.732 60.584L426.596 59.144C428.516 59.144 430.212 59.48 431.684 60.152C433.156 60.824 434.324 61.816 435.188 63.128C436.052 64.408 436.484 66.008 436.484 67.928C436.484 70.808 435.396 73.048 433.22 74.648C431.076 76.216 427.876 77 423.62 77H407.588ZM412.388 73.112H423.428C426.084 73.112 428.116 72.664 429.524 71.768C430.932 70.872 431.636 69.464 431.636 67.544C431.636 65.592 430.932 64.168 429.524 63.272C428.116 62.376 426.084 61.928 423.428 61.928H411.956V58.04H422.228C424.66 58.04 426.548 57.592 427.892 56.696C429.236 55.8 429.908 54.456 429.908 52.664C429.908 50.872 429.236 49.528 427.892 48.632C426.548 47.736 424.66 47.288 422.228 47.288H412.388V73.112Z" fill="white"/>
</g>
<defs>
<clipPath id="clip0_7_7">
<rect width="506" height="120" fill="white"/>
</clipPath>
</defs>
</svg>
